<mxfile host="drawio-plugin" modified="2024-03-12T19:44:32.908Z" agent="5.0 (Macintosh; Intel Mac OS X 10_15_7) AppleWebKit/537.36 (KHTML, like Gecko) Chrome/111.0.0.0 Safari/537.36" etag="6Vm3cRgF31sPSZWrPnWF" version="20.5.3" type="embed"><diagram id="kInGxmZcZrfjWZAlfeYu" name="favicon"><mxGraphModel dx="453" dy="335" grid="1" gridSize="10" guides="1" tooltips="1" connect="1" arrows="1" fold="1" page="1" pageScale="1" pageWidth="850" pageHeight="1100" math="0" shadow="0"><root><mxCell id="0"/><mxCell id="1" parent="0"/><mxCell id="YRng2BdQL5EzaOKXYbcf-11" value="" style="rounded=0;whiteSpace=wrap;html=1;strokeColor=none;aspect=fixed;" parent="1" vertex="1"><mxGeometry x="310" y="160" width="132" height="132" as="geometry"/></mxCell><mxCell id="i0YVFEnGLsnd7Nj5DuEs-1" value="" style="shape=image;verticalLabelPosition=bottom;labelBackgroundColor=default;verticalAlign=top;aspect=fixed;imageAspect=0;image=data:image/svg+xml,PHN2ZyB4bWxucz0iaHR0cDovL3d3dy53My5vcmcvMjAwMC9zdmciIHZpZXdCb3g9IjAgMCAyNCAyNCI+PGc+PHBhdGggZmlsbC1ydWxlPSJldmVub2RkIiBmaWxsPSIjMDIwMjAyIiBkPSJNMjEuMTQgNi45NGEuNzcuNzcgMCAwIDAtLjQ4LjJjLTEtLjgtMi4xNC0uMjUtMyAuNzJBMTYuMTIgMTYuMTIgMCAwIDAgMTYuMTUgMTBhLjI4LjI4IDAgMCAwIC40LjMyYy4wOCAwIDEuMzktMS4yMSAxLjQ3LTEuMjguNzMtLjY4IDEuMzUtMS40MiAxLjgxLTEuNDhzLjMyIDAgLjQxLjA5YTE5IDE5IDAgMCAwLTIuMDcgMi44MWMwIC4xMi0uMzEgMCAxLjUzIDEuNzFsLjI3LjI0QzE5IDEzLjU3IDE2IDE2LjczIDE1Ljc0IDE3YTIuNjYgMi42NiAwIDAgMS0xIC40MyAzLjcyIDMuNzIgMCAwIDEtLjIyLTEuNTJMMTcuNyAxMmEuMy4zIDAgMCAwLS40Ny0uMzdjLS43Mi44OC0zLjQ1IDMuMzktMy42OSAzLjkxYTQgNCAwIDAgMCAuMjggMi42MiAxIDEgMCAwIDAgLjkzLjMyIDQuMjYgNC4yNiAwIDAgMCAxLjc2LS42NWMuNi0uNjIgMy44Ni00Ljc5IDQuNjUtNS4zMWEyMCAyMCAwIDAgMCAxLjc3LTEuNjQgNC42NyA0LjY3IDAgMCAwIDEtMS4zN2MuNS0xLjU3LTEuODItMi42Ni0yLjc5LTIuNTdabTEuNjYgMi4zM2ExMi45IDEyLjkgMCAwIDEtMS41OCAxLjg4Yy0uOTEgMS0uNjUuNzQtMSAuNDYtMS41Mi0xLjI2LTEuMzMtMS0xLjI3LTEuMjFsMi0yLjE2Yy4zNC0uMzgtLjA2LS40NS43LS4xNS40NC4xNiAxLjQzLjYzIDEuMTUgMS4xOFoiLz48cGF0aCBmaWxsLXJ1bGU9ImV2ZW5vZGQiIGZpbGw9IiMwMjAyMDIiIGQ9Ik03LjIgMjIuNTNjLTEuNDgtLjI1LTEuNDgtMi4xMS0xLjYxLTMuNTNhNDAgNDAgMCAwIDEgLjE1LTYuNTdjLjE4LTIuNDYuNi0yLjI1LjU5LTUuNTEgMC0xLjczLS4zMy00LjA2LTEuNzktNWE0MC4yOSA0MC4yOSAwIDAgMSA2LjI0LjA4YzIuNjQuMTggNS43MS0uMTQgNi45MS42M0MxOS4yMyAzLjYzIDE4LjEyIDYgMTkgNmEuMzIuMzIgMCAwIDAgLjMxLS4zNmMtLjA2LTEuMzEuMjQtMi40NC0uODEtMy40NEE1LjgyIDUuODIgMCAwIDAgMTQuNzYgMWE3NS40NiA3NS40NiAwIDAgMC04LjU3IDBDNS43NyAxIDEuNiAxLjUgMSAyLjA4QTMuMTcgMy4xNyAwIDAgMCAwIDQuNSA0LjYxIDQuNjEgMCAwIDAgLjcyIDdhMS45MiAxLjkyIDAgMCAwIC45My42MmMxIC4zMSAzLjI0LjI1IDIuODYtLjU1QzQuNCA2LjggMy4xOSA3IDMuMTEgN2EyLjM1IDIuMzUgMCAwIDEtMS43Ny0uNTYgMy43NyAzLjc3IDAgMCAxLS40OC0yIDIuMzEgMi4zMSAwIDAgMSAuNzYtMS43MyAzLjU0IDMuNTQgMCAwIDEgMS4yNy0uMzFjMS4xMSAwIDEuNjQuNjYgMiAxLjczYTE0LjEzIDE0LjEzIDAgMCAxIC4zIDQuNDYgMzMgMzMgMCAwIDAtLjU1IDdjMCAxLjQzLjE5IDUgLjg0IDYuMjJhMi4xIDIuMSAwIDAgMCAxLjY3IDEuMjQuMy4zIDAgMCAwIC4wNS0uNTJaIi8+PHBhdGggZmlsbC1ydWxlPSJldmVub2RkIiBmaWxsPSIjMDIwMjAyIiBkPSJNMjEuODUgMTkuNTRhOCA4IDAgMCAxLTEuNzEtMy4xOS4yOS4yOSAwIDEgMC0uNTcuMTVjLjc1IDMuMzMgMi4xOCA0IDIuNzkgNC43OS0uMzQuMDgtMTMuMjYgMS4xLTE0IDFhLjMzLjMzIDAgMSAwLS4wOS42NmMxLjYxLjI2IDEwLjU5LS4yMiAxMy4xLS40OWEzIDMgMCAwIDAgMi0uNjVjLjYzLS42Ny0uNzEtMS40Ny0xLjUyLTIuMjdaIi8+PHBhdGggZmlsbC1ydWxlPSJldmVub2RkIiBmaWxsPSIjMGM2ZmZmIiBkPSJNOS42NyAxNi44NmMuMzkgMCAuNDYuODQuNSAxLjI2IDAgLjEzLS4wNy43OC4zNS45NWEuNTEuNTEgMCAwIDAgLjQ1IDBjMS42My0uODUuOTMtLjE4IDEuNDYtLjE4LjY4IDAgLjU2LTEuMzktMS4yNS0xIDAtMS4yNC0uMzQtMi4yOS0xLjU5LTIuMmEyLjc1IDIuNzUgMCAwIDAtMi4xOCAxLjgxIDMuOTIgMy45MiAwIDAgMC0uMzQgMS4wNWMuMTEgMS44NC44Ni0xLjY4IDIuNi0xLjY5WiIvPjxwYXRoIGZpbGwtcnVsZT0iZXZlbm9kZCIgZmlsbD0iIzBjNmZmZiIgZD0iTTguNTcgOC40MWM1LjI4LjE5IDIuMzIgMCA2LjA4IDBhLjM0LjM0IDAgMCAwIC4zNS0uMzUuNDcuNDcgMCAwIDAtLjM5LS4zN2MtLjI4LS4wNi0yLjEtLjMtMi45NC0uMzNhMTcuODQgMTcuODQgMCAwIDAtMy44NC40OC4zMS4zMSAwIDAgMCAuMi41M2MuMDkuMDIuNDguMDQuNTQuMDRaIi8+PHBhdGggZmlsbC1ydWxlPSJldmVub2RkIiBmaWxsPSIjMGM2ZmZmIiBkPSJNMTMuMjIgMTEuNjRjLTUuMi0uMTUtNS40OS4xMi01LjU3LjM0YS4zLjMgMCAwIDAgLjE3LjM4IDEuMjMgMS4yMyAwIDAgMCAuNDQuMWMuODQuMDYgNy4yOC4zOCA3LjI0LS40Mi0uMDMtLjU4LTEuMzctLjMzLTIuMjgtLjRaIi8+PC9nPjwvc3ZnPg==;" parent="1" vertex="1"><mxGeometry x="314.5" y="164.5" width="123" height="123" as="geometry"/></mxCell></root></mxGraphModel></diagram></mxfile>